<svg width="24" height="24" viewBox="0 0 24 24" fill="none" xmlns="http://www.w3.org/2000/svg">
<circle cx="9.2999" cy="14.6998" r="4.5" stroke="#A7AEB7" stroke-width="1.8"/>
<path fill-rule="evenodd" clip-rule="evenodd" d="M10.5126 8.40929C10.6798 7.88546 10.9528 7.39897 11.3173 6.98118C11.8262 6.39791 12.4919 5.97306 13.2352 5.75714C13.9785 5.54123 14.7682 5.54333 15.5104 5.76319C16.2525 5.98306 16.9159 6.41145 17.4217 6.99741C17.9274 7.58337 18.2543 8.30225 18.3633 9.06858C18.4724 9.8349 18.359 10.6164 18.0368 11.3202C17.7146 12.024 17.197 12.6204 16.5456 13.0386C16.2469 13.2304 15.9258 13.3809 15.591 13.4878C15.5969 13.5912 15.5999 13.6955 15.5999 13.8004C15.5999 14.3141 15.5282 14.8111 15.3942 15.2819C16.1268 15.1479 16.8298 14.872 17.4621 14.4661C18.3869 13.8724 19.1217 13.0256 19.5792 12.0264C20.0367 11.0272 20.1976 9.9176 20.0428 8.8296C19.8879 7.7416 19.4239 6.72095 18.7058 5.88902C17.9878 5.05709 17.0459 4.44888 15.9922 4.13672C14.9385 3.82456 13.8173 3.82158 12.762 4.12813C11.7067 4.43469 10.7616 5.03788 10.0391 5.86598C9.35961 6.64481 8.90393 7.59177 8.71851 8.60613C9.18925 8.47213 9.68622 8.40039 10.1999 8.40039C10.3049 8.40039 10.4091 8.40338 10.5126 8.40929Z" fill="#A7AEB7"/>
<path d="M19.2234 18.4659C19.9658 17.61 20.5584 16.6172 20.9738 15.5359C21.0502 15.3369 20.9537 15.1123 20.7665 15.0378L19.979 14.7244C19.7918 14.6499 19.585 14.7538 19.507 14.952C19.1649 15.8222 18.6833 16.6217 18.0835 17.3132C17.4014 18.0996 16.6101 18.626 15.6684 19.1685C14.8987 19.612 14.3633 19.8257 13.8657 19.9866C13.7767 20.0154 13.7786 20.1542 13.8687 20.1785L16.9009 20.9971C16.9834 21.0193 17.0461 20.9174 16.9951 20.844L16.808 20.5747C16.7744 20.5263 16.7893 20.457 16.8389 20.4288C17.7282 19.9233 18.5344 19.2602 19.2234 18.4659Z" fill="#A7AEB7"/>
<path d="M4.77664 5.53406C4.03422 6.39002 3.44156 7.38279 3.02625 8.46412C2.94983 8.6631 3.04632 8.8877 3.23349 8.9622L4.021 9.27564C4.20817 9.35014 4.41501 9.24625 4.49298 9.04797C4.83513 8.17776 5.31671 7.37833 5.91647 6.68684C6.59863 5.90036 7.38989 5.374 8.33158 4.83145C9.10133 4.38797 9.6367 4.17434 10.1343 4.01337C10.2233 3.9846 10.2214 3.8458 10.1313 3.82149L7.09909 3.00292C7.01661 2.98065 6.95394 3.08258 7.00495 3.15602L7.19196 3.42528C7.22557 3.47366 7.21068 3.54305 7.16112 3.57122C6.27179 4.07674 5.46557 4.73977 4.77664 5.53406Z" fill="#A7AEB7"/>
</svg>
