<svg width="24" height="24" viewBox="0 0 24 24" fill="none" xmlns="http://www.w3.org/2000/svg">
<path fill-rule="evenodd" clip-rule="evenodd" d="M19.2857 10.8934V15.7305C19.2857 17.6241 17.7507 19.1591 15.8571 19.1591H8.14287C6.24932 19.1591 4.71429 17.6241 4.71429 15.7305V10.8934C4.71429 9.75771 5.27667 8.69571 6.21605 8.05746L10.0732 5.43681C11.2362 4.64662 12.7638 4.64662 13.9268 5.43682L17.784 8.05746C18.7233 8.69571 19.2857 9.7577 19.2857 10.8934ZM3 10.8934C3 9.18986 3.84357 7.59686 5.25264 6.63949L9.10978 4.01885C10.8543 2.83356 13.1457 2.83356 14.8902 4.01885L18.7474 6.6395C20.1564 7.59686 21 9.18986 21 10.8934V15.7305C21 18.5709 18.6975 20.8734 15.8571 20.8734H8.14287C5.30254 20.8734 3 18.5709 3 15.7305V10.8934ZM12.0001 11.4839C11.29 11.4839 10.7144 12.0595 10.7144 12.7696V17.0553C10.7144 17.7654 11.29 18.341 12.0001 18.341C12.7101 18.341 13.2858 17.7654 13.2858 17.0553V12.7696C13.2858 12.0595 12.7101 11.4839 12.0001 11.4839Z" fill="#A7AEB7"/>
</svg>
